[Header]
FileType HTR
DataType HTRS
FileVersion 1
NumSegments 64
NumFrames 4
DataFrameRate 30
EulerRotationOrder ZYX
CalibrationUnits mm
RotationUnits Degrees
GlobalAxisofGravity Y
BoneLengthAxis Y
ScaleFactor 1.0
[SegmentNames&Hierarchy]
Hips	GLOBAL
Spine	Hips
Spine1	Spine
Spine2	Spine1
Neck	Spine2
Head	Neck
LeftEye	Head
RightEye	Head
LeftShoulder	Spine2
LeftArm	LeftShoulder
LeftForeArm	LeftArm
LeftHand	LeftForeArm
LeftHandThumb1	LeftHand
LeftHandThumb2	LeftHandThumb1
LeftHandThumb3	LeftHandThumb2
LeftHandThumb4	LeftHandThumb3
LeftHandIndex1	LeftHand
LeftHandIndex2	LeftHandIndex1
LeftHandIndex3	LeftHandIndex2
LeftHandIndex4	LeftHandIndex3
LeftHandMiddle1	LeftHand
LeftHandMiddle2	LeftHandMiddle1
LeftHandMiddle3	LeftHandMiddle2
LeftHandMiddle4	LeftHandMiddle3
LeftHandRing1	LeftHand
LeftHandRing2	LeftHandRing1
LeftHandRing3	LeftHandRing2
LeftHandRing4	LeftHandRing3
LeftHandPinky1	LeftHand
LeftHandPinky2	LeftHandPinky1
LeftHandPinky3	LeftHandPinky2
LeftHandPinky4	LeftHandPinky3
RightShoulder	Spine2
RightArm	RightShoulder
RightForeArm	RightArm
RightHand	RightForeArm
RightHandPinky1	RightHand
RightHandPinky2	RightHandPinky1
RightHandPinky3	RightHandPinky2
RightHandPinky4	RightHandPinky3
RightHandRing1	RightHand
RightHandRing2	RightHandRing1
RightHandRing3	RightHandRing2
RightHandRing4	RightHandRing3
RightHandMiddle1	RightHand
RightHandMiddle2	RightHandMiddle1
RightHandMiddle3	RightHandMiddle2
RightHandMiddle4	RightHandMiddle3
RightHandIndex1	RightHand
RightHandIndex2	RightHandIndex1
RightHandIndex3	RightHandIndex2
RightHandIndex4	RightHandIndex3
RightHandThumb1	RightHand
RightHandThumb2	RightHandThumb1
RightHandThumb3	RightHandThumb2
RightHandThumb4	RightHandThumb3
LeftUpLeg	Hips
LeftLeg	LeftUpLeg
LeftFoot	LeftLeg
LeftToeBase	LeftFoot
RightUpLeg	Hips
RightLeg	RightUpLeg
RightFoot	RightLeg
RightToeBase	RightFoot
[BasePosition]
Hips	0	0	0	0	0	0	1
Spine	0	0	0	0	0	0	1
Spine1	0	0	0	0	0	0	1
Spine2	0	0	0	0	0	0	1
Neck	0	0	0	0	0	0	1
Head	0	0	0	0	0	0	1
LeftEye	0	0	0	0	0	0	1
RightEye	0	0	0	0	0	0	1
LeftShoulder	0	0	0	0	0	0	1
LeftArm	0	0	0	0	0	0	1
LeftForeArm	0	0	0	0	0	0	1
LeftHand	0	0	0	0	0	0	1
LeftHandThumb1	0	0	0	0	0	0	1
LeftHandThumb2	0	0	0	0	0	0	1
LeftHandThumb3	0	0	0	0	0	0	1
LeftHandThumb4	0	0	0	0	0	0	1
LeftHandIndex1	0	0	0	0	0	0	1
LeftHandIndex2	0	0	0	0	0	0	1
LeftHandIndex3	0	0	0	0	0	0	1
LeftHandIndex4	0	0	0	0	0	0	1
LeftHandMiddle1	0	0	0	0	0	0	1
LeftHandMiddle2	0	0	0	0	0	0	1
LeftHandMiddle3	0	0	0	0	0	0	1
LeftHandMiddle4	0	0	0	0	0	0	1
LeftHandRing1	0	0	0	0	0	0	1
LeftHandRing2	0	0	0	0	0	0	1
LeftHandRing3	0	0	0	0	0	0	1
LeftHandRing4	0	0	0	0	0	0	1
LeftHandPinky1	0	0	0	0	0	0	1
LeftHandPinky2	0	0	0	0	0	0	1
LeftHandPinky3	0	0	0	0	0	0	1
LeftHandPinky4	0	0	0	0	0	0	1
RightShoulder	0	0	0	0	0	0	1
RightArm	0	0	0	0	0	0	1
RightForeArm	0	0	0	0	0	0	1
RightHand	0	0	0	0	0	0	1
RightHandPinky1	0	0	0	0	0	0	1
RightHandPinky2	0	0	0	0	0	0	1
RightHandPinky3	0	0	0	0	0	0	1
RightHandPinky4	0	0	0	0	0	0	1
RightHandRing1	0	0	0	0	0	0	1
RightHandRing2	0	0	0	0	0	0	1
RightHandRing3	0	0	0	0	0	0	1
RightHandRing4	0	0	0	0	0	0	1
RightHandMiddle1	0	0	0	0	0	0	1
RightHandMiddle2	0	0	0	0	0	0	1
RightHandMiddle3	0	0	0	0	0	0	1
RightHandMiddle4	0	0	0	0	0	0	1
RightHandIndex1	0	0	0	0	0	0	1
RightHandIndex2	0	0	0	0	0	0	1
RightHandIndex3	0	0	0	0	0	0	1
RightHandIndex4	0	0	0	0	0	0	1
RightHandThumb1	0	0	0	0	0	0	1
RightHandThumb2	0	0	0	0	0	0	1
RightHandThumb3	0	0	0	0	0	0	1
RightHandThumb4	0	0	0	0	0	0	1
LeftUpLeg	0	0	0	0	0	0	1
LeftLeg	0	0	0	0	0	0	1
LeftFoot	0	0	0	0	0	0	1
LeftToeBase	0	0	0	0	0	0	1
RightUpLeg	0	0	0	0	0	0	1
RightLeg	0	0	0	0	0	0	1
RightFoot	0	0	0	0	0	0	1
RightToeBase	0	0	0	0	0	0	1
[Hips]
538	63.95000839	1044.199097	-151.0777283	-164.7709961	253.6976624	-193.0869446	1.0
539	65.55489349	1033.875	-148.1553497	-163.0767517	252.9635468	-195.0970612	1.0
540	68.6425705	1028.740845	-143.5855713	-162.7859955	254.2960052	-196.029129	1.0
541	71.96440887	1030.24707	-135.2901611	-163.9002838	257.4737854	-196.6194611	1.0
[Spine]
538	0	101.8159943	1.315000057	5.928378105	-39.91300201	-13.61697102	1.0
539	0	101.8159943	1.315000057	4.982368469	-35.50823212	-11.79250908	1.0
540	0	101.8159943	1.315000057	3.874112129	-29.52880669	-10.18586063	1.0
541	0	101.8159943	1.315000057	4.193491936	-23.13569069	-7.771121979	1.0
[Spine1]
538	0	100.8349991	-10.00800037	3.642589331	-5.8090868	9.924180031	1.0
539	0	100.8349991	-10.00800037	3.891546965	-5.242949963	10.31587887	1.0
540	0	100.8349991	-10.00800037	3.783303738	-4.418889046	10.10759258	1.0
541	0	100.8349991	-10.00800037	3.149131298	-3.51018548	8.907300949	1.0
[Spine2]
538	0	91	-13.73399925	4.469599247	-5.943995953	9.460174561	1.0
539	0	91	-13.73399925	4.644233704	-5.366037846	9.902898788	1.0
540	0	91	-13.73399925	4.396989346	-4.507404327	9.79276371	1.0
541	0	91	-13.73399925	3.577952623	-3.533563852	8.722681046	1.0
[Neck]
538	0	166.7169952	-25.16200066	1.051314235	-3.059858084	-0.6315838695	1.0
539	0	166.7169952	-25.16200066	-1.649175167	-2.095257282	0.7292329073	1.0
540	0	166.7169952	-25.16200066	-3.183300495	-0.4649756551	2.070495129	1.0
541	0	166.7169952	-25.16200066	-3.885760069	1.665880203	2.641360998	1.0
[Head]
538	0	96.17900085	16.84999847	2.535678864	-16.72660446	2.245729446	1.0
539	0	96.17900085	16.84999847	0.7421318889	-9.728708267	1.45186615	1.0
540	0	96.17900085	16.84999847	-0.3715256453	0.1457498372	0.09683132172	1.0
541	0	96.17900085	16.84999847	-0.9932256341	11.3734684	-1.129678607	1.0
[LeftEye]
538	30.6760006	64.09500122	92.83599854	0	0	0	1.0
539	30.6760006	64.09500122	92.83599854	0	0	0	1.0
540	30.6760006	64.09500122	92.83599854	0	0	0	1.0
541	30.6760006	64.09500122	92.83599854	0	0	0	1.0
[RightEye]
538	-30.6760006	64.09500122	92.83499908	0	0	0	1.0
539	-30.6760006	64.09500122	92.83499908	0	0	0	1.0
540	-30.6760006	64.09500122	92.83499908	0	0	0	1.0
541	-30.6760006	64.09500122	92.83499908	0	0	0	1.0
[LeftShoulder]
538	45.70400238	109.4599991	-26.28000069	-0.3221115172	-9.816589355	12.4303875	1.0
539	45.70400238	109.4599991	-26.28000069	-0.2660643458	-9.723871231	11.99426651	1.0
540	45.70400238	109.4599991	-26.28000069	-0.1179423183	-10.25027943	10.61851597	1.0
541	45.70400238	109.4599991	-26.28000069	0.122353889	-9.314806938	8.56353569	1.0
[LeftArm]
538	105.923996	-5.24600029	-22.32099915	-60.41851044	-35.70044708	-13.42827702	1.0
539	105.923996	-5.24600029	-22.32099915	-58.62321472	-38.48106766	-18.68973351	1.0
540	105.923996	-5.24600029	-22.32099915	-54.14234161	-32.74866867	-21.83460808	1.0
541	105.923996	-5.24600029	-22.32099915	-50.19461441	-22.7280941	-22.13890839	1.0
[LeftForeArm]
538	278.414978	-0.0009999999311	0	2.770904393e-05	-107.6668701	-0.0002237556473	1.0
539	278.414978	-0.0009999999311	0	-1.159688418e-05	-106.8556213	-0.0002305906819	1.0
540	278.414978	-0.0009999999311	0	-1.208526737e-05	-105.4678497	-0.0001972656319	1.0
541	278.414978	-0.0009999999311	0	1.525878906e-05	-102.2316666	-0.0002136230469	1.0
[LeftHand]
538	283.2879944	0	0	24.58106613	-37.90980148	6.334150791	1.0
539	283.2879944	0	0	22.61335373	-37.35408401	9.512464523	1.0
540	283.2879944	0	0	20.69013023	-35.80716705	13.0639534	1.0
541	283.2879944	0	0	19.92829323	-33.84798813	15.27796936	1.0
[LeftHandThumb1]
538	24.6609993	-15.75	26.8239994	-19.24703598	-13.58373642	20.47963905	1.0
539	24.6609993	-15.75	26.8239994	-19.67028427	-13.77476978	21.17841148	1.0
540	24.6609993	-15.75	26.8239994	-19.84306335	-13.6040659	21.90455818	1.0
541	24.6609993	-15.75	26.8239994	-19.70353699	-13.06951904	22.52926826	1.0
[LeftHandThumb2]
538	32.29800034	-18.64699936	18.64699936	22.60656738	30.55685806	14.83522034	1.0
539	32.29800034	-18.64699936	18.64699936	22.68992805	30.54566574	14.88511372	1.0
540	32.29800034	-18.64699936	18.64699936	22.35277557	30.17126656	14.61394405	1.0
541	32.29800034	-18.64699936	18.64699936	21.64401627	29.48291206	14.06918526	1.0
[LeftHandThumb3]
538	26.52600098	-15.31499958	15.31499958	5.895702362	13.13841915	5.135759354	1.0
539	26.52600098	-15.31499958	15.31499958	6.041313171	13.2009058	5.190161705	1.0
540	26.52600098	-15.31499958	15.31499958	5.97595787	13.01003361	5.142284393	1.0
541	26.52600098	-15.31499958	15.31499958	5.709642887	12.61619186	5.003712177	1.0
[LeftHandThumb4]
538	19.54599953	-11.28499985	11.28499985	0	0	0	1.0
539	19.54599953	-11.28499985	11.28499985	0	0	0	1.0
540	19.54599953	-11.28499985	11.28499985	0	0	0	1.0
541	19.54599953	-11.28499985	11.28499985	0	0	0	1.0
[LeftHandIndex1]
538	91.09299469	-5.170999527	22.60099792	-0.5889296532	-10.67677212	25.01941299	1.0
539	91.09299469	-5.170999527	22.60099792	-0.5879763961	-10.72409439	25.01479721	1.0
540	91.09299469	-5.170999527	22.60099792	-0.5886311531	-10.67102909	25.01241302	1.0
541	91.09299469	-5.170999527	22.60099792	-0.5894459486	-10.5490818	24.99417305	1.0
[LeftHandIndex2]
538	36.76399994	0	0	8.753561815e-06	4.083862586e-05	-0.0003629202547	1.0
539	36.76399994	0	0	6.850862974e-06	1.55315247e-05	-0.0001538515644	1.0
540	36.76399994	0	0	-9.495332733e-07	-1.715960025e-06	1.681660615e-05	1.0
541	36.76399994	0	0	-1.876530405e-06	4.928214139e-07	-4.382439329e-06	1.0
[LeftHandIndex3]
538	28.83100128	0	0	-0.02005086653	0.5251228809	-4.372281075	1.0
539	28.83100128	0	0	-0.02004594915	0.5251092911	-4.372146606	1.0
540	28.83100128	0	0	-0.02003658935	0.5251121521	-4.372186184	1.0
541	28.83100128	0	0	-0.02005331218	0.5250980854	-4.372176647	1.0
[LeftHandIndex4]
538	23.92700005	0	0	0	0	0	1.0
539	23.92700005	0	0	0	0	0	1.0
540	23.92700005	0	0	0	0	0	1.0
541	23.92700005	0	0	0	0	0	1.0
[LeftHandMiddle1]
538	95.33399963	0	0	-0.5509634018	-2.393958569	23.08236122	1.0
539	95.33399963	0	0	-0.5511211157	-2.306509733	23.08743095	1.0
540	95.33399963	0	0	-0.5510450006	-2.209841967	23.08779144	1.0
541	95.33399963	0	0	-0.5503054261	-2.125674486	23.07423019	1.0
[LeftHandMiddle2]
538	36.98199844	0	0	-1.397214055e-05	-6.534786371e-05	-2.563790531e-06	1.0
539	36.98199844	0	0	-8.900742614e-07	-5.948725448e-05	1.100497002e-06	1.0
540	36.98199844	0	0	1.342642008e-05	-5.433971455e-05	2.421925046e-06	1.0
541	36.98199844	0	0	3.415409992e-06	-6.17962869e-05	-4.71748217e-06	1.0
[LeftHandMiddle3]
538	29.50900078	0	0	-0.01283418573	0.4203954041	-3.499081135	1.0
539	29.50900078	0	0	-0.01286734547	0.420861274	-3.503009558	1.0
540	29.50900078	0	0	-0.01289137453	0.4211338162	-3.505286455	1.0
541	29.50900078	0	0	-0.01288582105	0.4211718738	-3.505589962	1.0
[LeftHandMiddle4]
538	28.3390007	0	0	0	0	0	1.0
539	28.3390007	0	0	0	0	0	1.0
540	28.3390007	0	0	0	0	0	1.0
541	28.3390007	0	0	0	0	0	1.0
[LeftHandRing1]
538	91.04499817	-0.4390000105	-18.65100098	-0.541054666	3.88811326	23.75704384	1.0
539	91.04499817	-0.4390000105	-18.65100098	-0.5381079316	4.198355198	23.78040123	1.0
540	91.04499817	-0.4390000105	-18.65100098	-0.5355058908	4.433720112	23.79286385	1.0
541	91.04499817	-0.4390000105	-18.65100098	-0.5336865187	4.560189247	23.79190636	1.0
[LeftHandRing2]
538	31.54000092	0	0	-4.854861686e-07	-6.805812063e-06	1.844729923e-05	1.0
539	31.54000092	0	0	-7.705192729e-06	-9.41594044e-06	1.565236744e-05	1.0
540	31.54000092	0	0	-4.452843768e-06	-9.716211935e-06	-5.108754522e-06	1.0
541	31.54000092	0	0	-4.023221209e-06	-8.216044989e-06	1.065815013e-06	1.0
[LeftHandRing3]
538	29.37700081	0	0	-0.02219323814	0.5523000956	-4.599143982	1.0
539	29.37700081	0	0	-0.02222009189	0.5527728796	-4.603065491	1.0
540	29.37700081	0	0	-0.02222528309	0.5530469418	-4.605256081	1.0
541	29.37700081	0	0	-0.02223533764	0.5530524254	-4.605322838	1.0
[LeftHandRing4]
538	26.47500038	0	0	0	0	0	1.0
539	26.47500038	0	0	0	0	0	1.0
540	26.47500038	0	0	0	0	0	1.0
541	26.47500038	0	0	0	0	0	1.0
[LeftHandPinky1]
538	80.77799988	-4.887000084	-38.06099701	-0.8731727004	15.48088074	34.5918045	1.0
539	80.77799988	-4.887000084	-38.06099701	-0.8546783924	16.05358887	34.6345787	1.0
540	80.77799988	-4.887000084	-38.06099701	-0.8410719633	16.44837952	34.6580162	1.0
541	80.77799988	-4.887000084	-38.06099701	-0.8349343538	16.61878204	34.66608047	1.0
[LeftHandPinky2]
538	36	0	0	0.01665402204	-4.056827545	-0.4897380471	1.0
539	36	0	0	0.01660377346	-4.05691576	-0.4890093207	1.0
540	36	0	0	0.01661281474	-4.056904793	-0.4891359508	1.0
541	36	0	0	0.01660058275	-4.056904793	-0.489151895	1.0
[LeftHandPinky3]
538	21.14200211	0	0	-0.01583289169	0.466671139	-3.884842396	1.0
539	21.14200211	0	0	-0.01584464312	0.4667987823	-3.885878801	1.0
540	21.14200211	0	0	-0.01584124379	0.4668360353	-3.886159658	1.0
541	21.14200211	0	0	-0.01582188159	0.4667437971	-3.885398388	1.0
[LeftHandPinky4]
538	19.75699997	0	0	0	0	0	1.0
539	19.75699997	0	0	0	0	0	1.0
540	19.75699997	0	0	0	0	0	1.0
541	19.75699997	0	0	0	0	0	1.0
[RightShoulder]
538	-45.70000076	109.4620056	-26.28000069	0.1602761	-20.5968132	-10.81766224	1.0
539	-45.70000076	109.4620056	-26.28000069	-0.5596238375	-20.70274162	-5.939289093	1.0
540	-45.70000076	109.4620056	-26.28000069	-1.236747742	-18.57868958	-0.3762800395	1.0
541	-45.70000076	109.4620056	-26.28000069	-1.280920506	-14.47307682	3.520815372	1.0
[RightArm]
538	-105.9280014	-5.248000145	-22.32099915	-54.80050659	-14.65410233	11.13121223	1.0
539	-105.9280014	-5.248000145	-22.32099915	-64.02119446	-7.622810364	12.12845802	1.0
540	-105.9280014	-5.248000145	-22.32099915	-71.04211426	1.817446828	11.71194363	1.0
541	-105.9280014	-5.248000145	-22.32099915	-75.36212921	12.74131012	11.99534416	1.0
[RightForeArm]
538	-278.414978	0	0	-1.70898038e-05	127.9052734	-1.098616053e-06	1.0
539	-278.414978	0	0	-9.521419088e-06	127.7874222	8.667154361e-06	1.0
540	-278.414978	0	0	1.220624654e-06	125.3178787	6.470548215e-06	1.0
541	-278.414978	0	0	0	120.3989105	-4.577636719e-05	1.0
[RightHand]
538	-283.2879944	0	0.0009999999311	24.05828094	34.95885086	-13.19987011	1.0
539	-283.2879944	0	0.0009999999311	25.43310547	35.75716782	-12.40323734	1.0
540	-283.2879944	0	0.0009999999311	26.9862175	37.77917099	-10.97375584	1.0
541	-283.2879944	0	0.0009999999311	28.10852814	40.10301208	-9.113184929	1.0
[RightHandPinky1]
538	-80.76699829	-4.885000229	-38.06000137	-0.7548400164	-4.381817341	-27.92094994	1.0
539	-80.76699829	-4.885000229	-38.06000137	-0.7354252338	-5.766216755	-27.96634865	1.0
540	-80.76699829	-4.885000229	-38.06000137	-0.7044431567	-7.63238287	-28.0461216	1.0
541	-80.76699829	-4.885000229	-38.06000137	-0.6607142687	-9.809498787	-28.15219307	1.0
[RightHandPinky2]
538	-36	0	0.0009999999311	-0.002152817557	-0.1731508821	1.439590335	1.0
539	-36	0	0.0009999999311	-0.002381410683	-0.1818710268	1.511444449	1.0
540	-36	0	0.0009999999311	-0.002602637978	-0.1898802817	1.57744956	1.0
541	-36	0	0.0009999999311	-0.002769611543	-0.1962348074	1.629948139	1.0
[RightHandPinky3]
538	-21.14200211	0	0	-0.01959896274	0.521874249	-4.303143978	1.0
539	-21.14200211	0	0	-0.02724722773	0.6149224639	-5.072317123	1.0
540	-21.14200211	0	0	-0.0361905396	0.708463788	-5.846437454	1.0
541	-21.14200211	0	0	-0.04553306848	0.7945361137	-6.559817314	1.0
[RightHandPinky4]
538	-19.75699997	0	0	0	0	0	1.0
539	-19.75699997	0	0	0	0	0	1.0
540	-19.75699997	0	0	0	0	0	1.0
541	-19.75699997	0	0	0	0	0	1.0
[RightHandRing1]
538	-91.03599548	-0.4390000105	-18.65100098	-0.5832733512	2.398162127	-23.63807487	1.0
539	-91.03599548	-0.4390000105	-18.65100098	-0.6044056416	0.9704751372	-24.14445305	1.0
540	-91.03599548	-0.4390000105	-18.65100098	-0.6294414997	-0.3420977294	-24.74312973	1.0
541	-91.03599548	-0.4390000105	-18.65100098	-0.6556793451	-0.7398597598	-25.2825737	1.0
[RightHandRing2]
538	-31.54000092	0	0	1.504474767e-08	2.779868964e-06	3.287713116e-05	1.0
539	-31.54000092	0	0	-2.019632177e-07	4.023100701e-06	2.22441613e-05	1.0
540	-31.54000092	0	0	-3.294207318e-06	-3.800961679e-07	2.529307676e-05	1.0
541	-31.54000092	0	0	-7.681292118e-07	-4.983965596e-07	9.53627241e-05	1.0
[RightHandRing3]
538	-29.37700081	0	0	-0.08108918369	0.5942978263	-4.901519775	1.0
539	-29.37700081	0	0	-0.1987058222	0.6509885192	-5.372178555	1.0
540	-29.37700081	0	0	-0.5066291094	0.7246186733	-5.972687244	1.0
541	-29.37700081	0	0	-1.172833681	0.8285495639	-6.799432278	1.0
[RightHandRing4]
538	-26.47500038	0	0	0	0	0	1.0
539	-26.47500038	0	0	0	0	0	1.0
540	-26.47500038	0	0	0	0	0	1.0
541	-26.47500038	0	0	0	0	0	1.0
[RightHandMiddle1]
538	-95.32500458	0	0	-0.5682381988	9.735832214	-24.24744225	1.0
539	-95.32500458	0	0	-0.6487585902	8.05281353	-25.42148781	1.0
540	-95.32500458	0	0	-0.7427187562	6.49037838	-26.86465454	1.0
541	-95.32500458	0	0	-0.8334713578	5.833623886	-28.32239532	1.0
[RightHandMiddle2]
538	-36.98199844	0	0	2.521780971e-06	-4.485376394e-06	6.975265933e-06	1.0
539	-36.98199844	0	0	2.907030421e-06	-7.264516739e-07	4.760315278e-06	1.0
540	-36.98199844	0	0	-3.168540388e-06	7.749533324e-06	2.48203196e-05	1.0
541	-36.98199844	0	0	-1.492924412e-06	2.490379075e-06	7.898928015e-05	1.0
[RightHandMiddle3]
538	-29.50900078	0	0	0.6815686822	0.5647109151	-4.673717499	1.0
539	-29.50900078	0	0	0.5658101439	0.603001833	-4.991886616	1.0
540	-29.50900078	0	0	0.2866279781	0.6610769033	-5.46463728	1.0
541	-29.50900078	0	0	-0.2957407534	0.7527504563	-6.193986893	1.0
[RightHandMiddle4]
538	-28.3390007	0	0.0009999999311	0	0	0	1.0
539	-28.3390007	0	0.0009999999311	0	0	0	1.0
540	-28.3390007	0	0.0009999999311	0	0	0	1.0
541	-28.3390007	0	0.0009999999311	0	0	0	1.0
[RightHandIndex1]
538	-91.08300018	-5.167999744	22.60099792	-0.3080165684	18.34076309	-22.93657875	1.0
539	-91.08300018	-5.167999744	22.60099792	-0.4868630171	16.10264587	-25.02031136	1.0
540	-91.08300018	-5.167999744	22.60099792	-0.6973930001	13.54179955	-27.6519165	1.0
541	-91.08300018	-5.167999744	22.60099792	-0.9125279188	10.9778204	-30.49035645	1.0
[RightHandIndex2]
538	-36.76399994	0	0	-4.736489814e-07	4.920996071e-05	-0.0003953920968	1.0
539	-36.76399994	0	0	-4.036854477e-07	1.105075398e-06	-1.168182493e-07	1.0
540	-36.76399994	0	0	1.263571221e-07	0.0004270671343	-0.003517811652	1.0
541	-36.76399994	0	0	-3.775989398e-06	1.349800073e-06	-8.917912169e-07	1.0
[RightHandIndex3]
538	-28.83100128	0	0	-0.01833877712	0.5047319531	-4.16153574	1.0
539	-28.83100128	0	0	-0.01987534016	0.5253970027	-4.332258701	1.0
540	-28.83100128	0	0	-0.02216095664	0.5547482967	-4.574792862	1.0
541	-28.83100128	0	0	-0.02499159239	0.5890886784	-4.85865736	1.0
[RightHandIndex4]
538	-23.92700005	0	0	0	0	0	1.0
539	-23.92700005	0	0	0	0	0	1.0
540	-23.92700005	0	0	0	0	0	1.0
541	-23.92700005	0	0	0	0	0	1.0
[RightHandThumb1]
538	-24.64799881	-15.72700024	26.82600021	-15.16340923	-8.628969193	-19.65696526	1.0
539	-24.64799881	-15.72700024	26.82600021	-15.05089474	-8.867492676	-22.9525528	1.0
540	-24.64799881	-15.72700024	26.82600021	-14.91226292	-9.171995163	-26.31728935	1.0
541	-24.64799881	-15.72700024	26.82600021	-14.74168682	-9.513526917	-29.29474258	1.0
[RightHandThumb2]
538	-32.29800034	-18.64699936	18.64699936	9.794618607	-23.92826843	-4.446493149	1.0
539	-32.29800034	-18.64699936	18.64699936	8.301781654	-20.04468918	-3.091300249	1.0
540	-32.29800034	-18.64699936	18.64699936	6.719596386	-15.39178658	-1.673223019	1.0
541	-32.29800034	-18.64699936	18.64699936	5.255129337	-10.50772572	-0.3960105181	1.0
[RightHandThumb3]
538	-26.52600098	-15.31399918	15.31399918	5.723953247	-13.26557732	-4.944383621	1.0
539	-26.52600098	-15.31399918	15.31399918	3.806911469	-10.02444839	-4.149356842	1.0
540	-26.52600098	-15.31399918	15.31399918	1.741344452	-6.390454769	-3.525809526	1.0
541	-26.52600098	-15.31399918	15.31399918	-0.2491113842	-2.771405935	-3.164106369	1.0
[RightHandThumb4]
538	-19.54599953	-11.28499985	11.28499985	0	0	0	1.0
539	-19.54599953	-11.28499985	11.28499985	0	0	0	1.0
540	-19.54599953	-11.28499985	11.28499985	0	0	0	1.0
541	-19.54599953	-11.28499985	11.28499985	0	0	0	1.0
[LeftUpLeg]
538	82.07800293	-67.51699829	-15.99599934	-2.907543659	0.4845513701	2.283409357	1.0
539	82.07800293	-67.51699829	-15.99599934	-4.811367989	-1.521884799	3.471564293	1.0
540	82.07800293	-67.51699829	-15.99599934	-6.940291405	-2.786147833	3.849362135	1.0
541	82.07800293	-67.51699829	-15.99599934	-6.878743172	-4.68097496	3.483980894	1.0
[LeftLeg]
538	0	-443.7049866	2.845999956	8.01986599	9.891782761	1.747795105	1.0
539	0	-443.7049866	2.845999956	12.68879318	9.801872253	1.135936975	1.0
540	0	-443.7049866	2.845999956	18.19699669	10.23107624	0.04027547687	1.0
541	0	-443.7049866	2.845999956	21.49837685	11.46060371	-1.46570003	1.0
[LeftFoot]
538	0	-444.2789917	-29.8219986	-5.027970791	4.244012356	-0.3367758989	1.0
539	0	-444.2789917	-29.8219986	-11.17886925	5.192559719	-0.09611277282	1.0
540	0	-444.2789917	-29.8219986	-12.59474277	7.323472023	-0.3480090201	1.0
541	0	-444.2789917	-29.8219986	-9.990633965	10.66483974	0.1101611182	1.0
[LeftToeBase]
538	0	-87.28699493	107.1060028	-4.520431995	-0.01587259583	-0.06196518987	1.0
539	0	-87.28699493	107.1060028	-0.7127879262	1.405918101e-05	8.071347111e-07	1.0
540	0	-87.28699493	107.1060028	-1.7038939	-1.830796691e-06	-2.351148396e-07	1.0
541	0	-87.28699493	107.1060028	-7.494368553	-2.870368553e-05	1.521890567e-06	1.0
[RightUpLeg]
538	-82.07800293	-67.51699829	-15.99599934	-3.04151082	-4.332818031	1.8141433	1.0
539	-82.07800293	-67.51699829	-15.99599934	-2.678117514	-6.359885693	3.334893703	1.0
540	-82.07800293	-67.51699829	-15.99599934	-2.624004364	-7.031439781	3.512420893	1.0
541	-82.07800293	-67.51699829	-15.99599934	-2.139460802	-7.466647148	1.519484878	1.0
[RightLeg]
538	0	-443.7049866	2.861999989	9.918542862	-10.25366688	-1.759224653	1.0
539	0	-443.7049866	2.861999989	10.20064259	-10.39120674	-2.897689104	1.0
540	0	-443.7049866	2.861999989	10.7715807	-10.11944675	-4.194662094	1.0
541	0	-443.7049866	2.861999989	12.55398178	-10.03851986	-4.199189663	1.0
[RightFoot]
538	0	-444.2770081	-29.83799934	-7.748957157	-28.26436234	17.85599136	1.0
539	0	-444.2770081	-29.83799934	-11.71827698	-26.09166336	16.96924782	1.0
540	0	-444.2770081	-29.83799934	-12.94113636	-24.53972816	15.74955082	1.0
541	0	-444.2770081	-29.83799934	-11.22821617	-21.95780945	15.12244892	1.0
[RightToeBase]
538	0	-87.28699493	107.1060028	-7.886751175	0.04258191586	0.2504889667	1.0
539	0	-87.28699493	107.1060028	-3.323533773	6.118946658e-06	-2.037175818e-06	1.0
540	0	-87.28699493	107.1060028	-0.9454020858	0.006961394567	0.08095575124	1.0
541	0	-87.28699493	107.1060028	-2.011645794	7.378893315e-06	-2.661667395e-06	1.0
[EndOfFile]
